subject01_walk1_RRA_states
nRows=5
nColumns=47

# SIMM Motion File Header:
name subject01_walk1_RRA_states
datacolumns 47
datarows 5
otherdata 1
range 0.99600000000000022000 0.99800000000000022000
endheader
time	pelvis_tx	pelvis_ty	pelvis_tz	pelvis_tilt	pelvis_list	pelvis_rotation	hip_flexion_r	hip_adduction_r	hip_rotation_r	knee_angle_r	ankle_angle_r	subtalar_angle_r	mtp_angle_r	hip_flexion_l	hip_adduction_l	hip_rotation_l	knee_angle_l	ankle_angle_l	subtalar_angle_l	mtp_angle_l	lumbar_extension	lumbar_bending	lumbar_rotation	pelvis_tx_u	pelvis_ty_u	pelvis_tz_u	pelvis_tilt_u	pelvis_list_u	pelvis_rotation_u	hip_flexion_r_u	hip_adduction_r_u	hip_rotation_r_u	knee_angle_r_u	ankle_angle_r_u	subtalar_angle_r_u	mtp_angle_r_u	hip_flexion_l_u	hip_adduction_l_u	hip_rotation_l_u	knee_angle_l_u	ankle_angle_l_u	subtalar_angle_l_u	mtp_angle_l_u	lumbar_extension_u	lumbar_bending_u	lumbar_rotation_u
      0.99600000000000022000	      0.59277257464617650000	      1.04480719696497440000	      0.04799290060574261400	      5.24518598182940470000	      0.07890137980091631300	      0.50857587584371233000	     -2.85078425209285190000	      1.86455478066226510000	     -3.91452645297684310000	    -11.55121092083125400000	      7.93125220528106120000	      0.07075513429951862900	     -0.01427640332016911700	     18.18759443333550900000	     -2.98184130497696520000	     -3.78082890157339470000	    -58.65408920118821400000	      1.57711356144806180000	      0.00886572536534113720	     -0.04855538359275284700	    -16.23088517900512100000	      1.79147210991688730000	      0.50750764597044329000	     -0.12624596666617161000	      0.03272733520748640600	      0.08160015469390953500	      2.54811994776855900000	      1.85508948188774810000	    -18.02357673942008600000	    -89.81894472859335100000	      3.42442780876804510000	     10.21771403839456700000	     50.61186978296085900000	     15.92083999745080200000	      0.17146925751922495000	     -0.33598403049130726000	     57.12717271258463800000	      5.32757799204328550000	    -27.56485353605388900000	    221.11032542416220000000	      4.00900223959450660000	     -0.06269604917007373700	      0.29123083066409433000	    -10.89137412228138900000	    -11.42556908877420200000	     22.97171576783037100000
      0.99650000000000016000	      0.59270943346542826000	      1.04482338128024390000	      0.04803365286975704000	      5.24646054969740750000	      0.07976528453083049600	      0.49958905885619231000	     -2.89567788825433280000	      1.86632325964930820000	     -3.90945290772659830000	    -11.52593176083679100000	      7.93919272862005790000	      0.07083911263661400700	     -0.01444396242409629700	     18.21604126046289800000	     -2.97931208760479830000	     -3.79475013817094680000	    -58.54325394780173000000	      1.57904379569925870000	      0.00883443509327525370	     -0.04840991240968411900	    -16.23633048889523800000	      1.78582804207397760000	      0.51897111061138257000	     -0.12631836543869512000	      0.03200982910521670700	      0.08140878432751061400	      2.55002678939240560000	      1.60051282094691060000	    -17.92375389984166400000	    -89.75570610543977100000	      3.64951197406933980000	     10.07701228398332000000	     50.50511768881921900000	     15.84180229982008600000	      0.16452182708432117000	     -0.33485870252799638000	     56.66012667749393500000	      4.78962456604798260000	    -28.12009752846792000000	    222.23040645628126000000	      3.71227065749069010000	     -0.06247168822317167300	      0.29065048983007791000	    -10.88968806458854200000	    -11.15066241338095100000	     22.88225133233104100000
      0.99700000000000022000	      0.59264625666947912000	      1.04483920670889410000	      0.04807430926641796000	      5.24773588664815890000	      0.08050186689218012700	      0.49065206359024321000	     -2.94054006476952920000	      1.86820432509000130000	     -3.90444891082695910000	    -11.50070545800689500000	      7.94709418932349990000	      0.07091964645736588400	     -0.01461124470954198100	     18.24425455019804700000	     -2.97705135586402260000	     -3.80894899947534560000	    -58.43185907868215200000	      1.58082616649153860000	      0.00880325397516009030	     -0.04826473372891118600	    -16.24177469309633200000	      1.78032149882082980000	      0.53039000404699588000	     -0.12638843172165998000	      0.03129181294009036200	      0.08121667248519073800	      2.55120183614952770000	      1.34578193091521080000	    -17.82428130671692700000	    -89.69310692650400100000	      3.87479099387933920000	      9.93949064512545280000	     50.40043596438896100000	     15.76386615523094300000	      0.15750502401231298000	     -0.33364974492078570000	     56.19302230997755700000	      4.25361887635120710000	    -28.67534306530688700000	    223.34878236854962000000	      3.41754580682531060000	     -0.06224540677370899600	      0.29006638524854800000	    -10.88695821748886800000	    -10.87544801024922800000	     22.79342752091714500000
      0.99750000000000016000	      0.59258304542095208000	      1.04485467300114680000	      0.04811486941842363400	      5.24901162747720120000	      0.08111104348093810300	      0.48176471506411195000	     -2.98537109980941210000	      1.87019808348031310000	     -3.89951287606174500000	    -11.47553098651012400000	      7.95495690493586060000	      0.07099643335856338500	     -0.01477782358997637400	     18.27223427936048900000	     -2.97505813204645490000	     -3.82342546737264980000	    -58.31990545391647600000	      1.58246166828145160000	      0.00877219142196690450	     -0.04811984672177874200	    -16.24721727143585800000	      1.77495264177443350000	      0.54176464750448472000	     -0.12645617422205230000	      0.03057324583990960600	      0.08102381647570217100	      2.55163273734887990000	      1.09091381320261220000	    -17.72518351840018600000	    -89.63113623709236300000	      4.10026507469296230000	      9.80521345050234490000	     50.29778722032526900000	     15.68774391394111200000	      0.14944998697915793000	     -0.33362071139510885000	     55.72589779352394900000	      3.71963455872107080000	    -29.23050438852894900000	    224.46542617529164000000	      3.12478177940052640000	     -0.06200933695275599000	      0.28947813128052213000	    -10.88317449727553700000	    -10.59994787819223200000	     22.70525972067561300000
      0.99800000000000022000	      0.59251980088202039000	      1.04486977985781040000	      0.04815533295220415800	      5.25028739414733630000	      0.08159276195283841900	      0.47292681450663376000	     -3.03017130661208030000	      1.87230461595913060000	     -3.89464315322109880000	    -11.45040732723062700000	      7.96278216281458470000	      0.07106903979407759600	     -0.01494491267651446200	     18.29998044981852000000	     -2.97333136971954380000	     -3.83817947422765120000	    -58.20739394476493100000	      1.58395126663467290000	      0.00874124528324594570	     -0.04797525624726457100	    -16.25265769109646300000	      1.76972159423601920000	      0.55309537428373801000	     -0.12652159579916084000	      0.02985409856031907500	      0.08083017499754313600	      2.55131242890210740000	      0.83593385272463738000	    -17.62647900112073500000	    -89.56979996647383800000	      4.32589190006164780000	      9.67419938273768660000	     50.19720279769611400000	     15.61294915272579200000	      0.14112619406919397000	     -0.33378123962686151000	     55.25878451940706500000	      3.18776109594293850000	    -29.78548689183513800000	    225.58031524676738000000	      2.83392810687267490000	     -0.06176987540326523600	      0.28888601068467157000	    -10.87833201829136900000	    -10.32418853010634200000	     22.61775478068054600000
